<?xml version="1.0" encoding="UTF-8" standalone="no"?>
<!DOCTYPE svg PUBLIC "-//W3C//DTD SVG 1.1//EN" "http://www.w3.org/Graphics/SVG/1.1/DTD/svg11.dtd">
<svg width="100%" height="100%" viewBox="0 0 800 600" version="1.1" xmlns="http://www.w3.org/2000/svg" xmlns:xlink="http://www.w3.org/1999/xlink" xml:space="preserve" xmlns:serif="http://www.serif.com/" style="fill-rule:evenodd;clip-rule:evenodd;stroke-linejoin:round;stroke-miterlimit:2;">
    <g transform="matrix(0.1,0,0,-0.1,0,600)">
        <g transform="matrix(10,0,0,-10,0,6000)">
            <rect x="600.607" y="320.299" width="54.941" height="56.991" style="fill:rgb(233,235,237);"/>
        </g>
        <g transform="matrix(9.76937,0,0,-9.92986,103.078,5986.55)">
            <rect x="390.05" y="191.78" width="56.889" height="37.413" style="fill:rgb(82,147,199);"/>
        </g>
        <g transform="matrix(10,0,0,-10,0,6000)">
            <rect x="322.15" y="260.313" width="55.924" height="37.618" style="fill:rgb(255,182,72);"/>
        </g>
        <g transform="matrix(10,0,0,-10,0,6000)">
            <rect x="120.207" y="258.964" width="24.049" height="25.93" style="fill:rgb(233,235,237);"/>
        </g>
        <g transform="matrix(9.87517,0,0,-9.30683,26.2253,5784.46)">
            <rect x="210.087" y="289.634" width="86.102" height="21.32" style="fill:rgb(194,200,204);"/>
        </g>
        <g transform="matrix(37.619,0,0,-20.5455,-2959.87,13741.2)">
            <rect x="103.443" y="476.689" width="48.493" height="11.546" style="fill:rgb(194,200,204);"/>
        </g>
        <g transform="matrix(17.7596,0,0,-11.3253,-2071.8,6999.64)">
            <rect x="234.535" y="453.319" width="48.02" height="21.78" style="fill:rgb(194,200,204);"/>
        </g>
        <path d="M4129,4550C4087,4538 4045,4501 4019,4457C4001,4424 3995,4395 3992,4328L3988,4240L3960,4240C3941,4240 3924,4231 3911,4214C3891,4189 3890,4175 3890,3960C3890,3745 3891,3731 3911,3706L3931,3680L4186,3680C4427,3680 4441,3681 4460,3700C4479,3719 4480,3733 4480,3964C4480,4206 4480,4209 4458,4224C4440,4237 4403,4240 4268,4240L4100,4240L4100,4324C4100,4406 4101,4409 4132,4435C4195,4488 4280,4443 4280,4356C4280,4300 4307,4272 4348,4286C4374,4295 4375,4298 4375,4367C4375,4431 4372,4442 4344,4477C4290,4545 4206,4574 4129,4550ZM4278,4503C4327,4467 4350,4422 4350,4363C4350,4317 4347,4309 4333,4312C4320,4314 4314,4328 4310,4361C4303,4420 4278,4458 4233,4477C4182,4498 4138,4487 4101,4444L4070,4409L4070,4280L4070,4150L4044,4150L4018,4150L4022,4283C4025,4401 4028,4419 4048,4453C4082,4506 4132,4531 4198,4527C4231,4525 4261,4516 4278,4503ZM4448,3890L4445,3715L4196,3712C4021,3710 3943,3713 3934,3721C3923,3730 3920,3770 3920,3899L3920,4065L4450,4065L4448,3890Z" style="fill-rule:nonzero;"/>
        <path d="M897,3973C893,3970 890,3583 890,3114C890,2346 892,2262 906,2256C908.61,2255.13 932.588,2254.26 972.955,2253.46C1071.77,2251.51 1268.78,2250 1491,2250L2060,2250L2060,1970C2060,1653 2065,1624 2125,1596C2174,1572 2876,1572 2925,1596C2977,1620 2990,1665 2990,1825L2990,1960L5688,1960L5756,1873C5878,1717 6055,1560 6192,1486L6246,1457L6317,1498C6700,1722 6966,2082 7051,2490C7068,2571 7072,2638 7076,2950C7079,3162 7077,3321 7072,3328C7065,3339 7043,3337 6954,3320C6798,3289 6536,3282 6369,3304C6251,3320 6236,3320 6124,3304C5966,3282 5681,3290 5535,3319C5480,3331 5429,3340 5423,3340C5407,3340 5405,2835 5420,2690C5441,2492 5512,2271 5610,2095L5658,2010L5375,2010L5093,2010L5088,2058C5082,2124 5053,2177 5007,2211C4933,2264 4859,2271 4780,2230C4712,2195 4670,2127 4670,2050L4670,2010L4540,2010L4410,2010L4410,2038C4410,2127 4344,2217 4258,2246C4214,2260 4199,2261 4153,2250C4060,2230 4000,2160 3985,2058L3978,2010L3850,2010L3723,2010L3718,2058C3709,2154 3649,2226 3556,2251C3434,2284 3301,2181 3300,2053L3300,2010L3145,2010L2991,2010L2988,2540L2985,3070L2953,3102C2924,3130 2913,3135 2855,3138L2790,3142L2788,3559L2785,3975L1844,3978C1327,3979 900,3977 897,3973ZM2743,3743C2747,3639 2750,3462 2750,3348L2750,3140L2454,3140C2132,3140 2105,3136 2081,3084C2074,3067 2070,2942 2070,2680L2070,2300L1500,2300L930,2300L930,2933C930,3282 933,3649 937,3748L943,3930L2737,3930L2743,3743ZM5695,3249C5818,3236 6061,3243 6175,3263C6231,3272 6259,3272 6315,3263C6491,3231 6788,3237 6968,3275L7032,3288L7027,2931C7023,2656 7019,2558 7006,2500C6924,2118 6674,1774 6320,1555L6246,1510L6201,1536C6054,1621 5872,1791 5757,1951C5680,2058 5573,2267 5534,2385C5474,2566 5468,2619 5463,2966L5458,3288L5522,3275C5556,3267 5635,3256 5695,3249ZM2920,3070C2936,3054 2940,3037 2940,2975L2940,2900L2525,2900L2110,2900L2110,2975C2110,3098 2081,3090 2525,3090C2887,3090 2901,3089 2920,3070ZM2940,2375L2940,1880L2525,1880L2110,1880L2110,2870L2940,2870L2940,2375ZM3586,2211C3646,2184 3682,2131 3688,2064L3692,2010L3506,2010L3320,2010L3320,2040C3320,2106 3374,2189 3435,2216C3477,2235 3538,2233 3586,2211ZM4267,2215C4288,2206 4313,2192 4324,2182C4352,2157 4380,2091 4380,2048L4380,2010L4194,2010L4007,2010L4012,2060C4024,2186 4151,2263 4267,2215ZM4956,2211C5016,2184 5052,2131 5058,2064L5062,2010L4876,2010L4690,2010L4690,2033C4690,2104 4744,2190 4805,2216C4848,2235 4908,2233 4956,2211ZM2940,1760C2940,1619 2974,1630 2525,1630C2076,1630 2110,1619 2110,1760L2110,1850L2940,1850L2940,1760Z" style="fill:rgb(194,200,204);fill-rule:nonzero;stroke:rgb(47,57,65);stroke-width:10px;"/>
        <g transform="matrix(10,0,0,-10,0,6000)">
            <ellipse cx="624.657" cy="425.167" rx="3.411" ry="3.936" style="fill:rgb(255,182,72);"/>
        </g>
        <g transform="matrix(10,0,0,-10,-587.789,7296.29)">
            <ellipse cx="624.657" cy="425.167" rx="3.411" ry="3.936" style="fill:rgb(255,182,72);"/>
        </g>
        <g transform="matrix(10,0,0,-10,587.789,7293.66)">
            <ellipse cx="624.657" cy="425.167" rx="3.411" ry="3.936" style="fill:rgb(255,182,72);"/>
        </g>
        <g transform="matrix(10,0,0,-10,0,6000)">
            <rect x="119.508" y="285.257" width="25.023" height="8.397" style="fill:rgb(194,200,204);"/>
        </g>
        <g transform="matrix(10,0,0,-10,0,6000)">
            <rect x="120.516" y="249.99" width="24.351" height="9.069" style="fill:rgb(194,200,204);"/>
        </g>
        <g transform="matrix(1,0,0,1,930.721,1303.83)">
            <g transform="matrix(30.3731,0,0,-58.376,-2434.78,15895.8)">
                <path d="M143.277,250.585L123.834,250.585L123.74,252.824L123.646,255.083L120.882,255.274L122.233,256.02C123.049,256.461 123.677,256.996 123.772,257.36L123.991,257.953L143.12,257.953L143.214,254.26L143.277,250.585Z" style="fill:rgb(194,200,204);"/>
            </g>
            <g transform="matrix(30.3731,0,0,-58.376,-2434.78,15895.8)">
                <path d="M142.649,257.475L124.431,257.475L124.431,256.958C124.431,256.614 124.117,256.288 123.583,256.001L122.704,255.58L123.583,255.561L124.431,255.561L124.431,250.968L142.649,250.968L142.649,257.475Z" style="fill:rgb(194,200,204);"/>
            </g>
            <g transform="matrix(0.953996,1.998e-17,1.998e-17,1.11715,-811.45,-1536.36)">
                <path d="M2860,2510L2858,2318L2855,2125L2246,2125L2239,2156C2236,2175 2216,2203 2190,2226L2147,2265L2235,2275L2238,2393L2241,2510L2860,2510Z"/>
            </g>
            <g transform="matrix(0.953996,1.998e-17,1.998e-17,1.11715,-811.45,-1536.36)">
                <path d="M2840,2150L2840,2490L2260,2490L2260,2250L2233,2250L2205,2249L2233,2227C2250,2212 2260,2195 2260,2177L2260,2150L2840,2150Z" style="fill:rgb(233,235,237);"/>
            </g>
        </g>
        <path d="M1007,3862C997,3852 990,3834 990,3822C990,3795 1023,3760 1048,3760C1079,3760 1110,3789 1110,3819C1110,3873 1042,3901 1007,3862ZM1078,3824C1082,3797 1052,3784 1032,3804C1011,3824 1024,3852 1052,3848C1066,3846 1076,3837 1078,3824Z" style="fill-rule:nonzero;"/>
        <path d="M1187,3862C1177,3852 1170,3834 1170,3822C1170,3794 1204,3760 1230,3760C1257,3760 1290,3795 1290,3823C1290,3873 1220,3899 1187,3862ZM1257,3834C1260,3826 1255,3811 1246,3802C1232,3787 1228,3787 1215,3801C1206,3810 1202,3824 1206,3833C1214,3854 1249,3855 1257,3834Z" style="fill-rule:nonzero;"/>
        <path d="M1367,3862C1357,3852 1350,3834 1350,3822C1350,3794 1384,3760 1410,3760C1437,3760 1470,3795 1470,3823C1470,3873 1400,3899 1367,3862ZM1438,3824C1442,3797 1412,3784 1392,3804C1371,3824 1384,3852 1412,3848C1426,3846 1436,3837 1438,3824Z" style="fill-rule:nonzero;"/>
        <path d="M1202,3508C1193,3499 1190,3434 1190,3278C1190,3073 1191,3060 1209,3050C1220,3045 1274,3040 1329,3040C1406,3040 1432,3044 1444,3056C1458,3069 1460,3104 1460,3284C1460,3435 1457,3499 1448,3508C1431,3525 1219,3525 1202,3508ZM1428,3488C1435,3481 1440,3463 1440,3448L1440,3420L1325,3420L1210,3420L1210,3448C1210,3463 1215,3481 1222,3488C1238,3504 1412,3504 1428,3488ZM1440,3280L1440,3160L1325,3160L1210,3160L1210,3400L1440,3400L1440,3280ZM1440,3118C1440,3073 1430,3069 1319,3072L1215,3075L1212,3108L1209,3140L1324,3140C1438,3140 1440,3140 1440,3118Z" style="fill-rule:nonzero;"/>
        <path d="M1588,3363C1594,3361 1606,3361 1613,3363C1619,3366 1614,3368 1600,3368C1586,3368 1581,3366 1588,3363Z" style="fill-rule:nonzero;"/>
        <path d="M1648,3363C1654,3361 1666,3361 1673,3363C1679,3366 1674,3368 1660,3368C1646,3368 1641,3366 1648,3363Z" style="fill-rule:nonzero;"/>
        <path d="M1708,3363C1714,3361 1726,3361 1733,3363C1739,3366 1734,3368 1720,3368C1706,3368 1701,3366 1708,3363Z" style="fill-rule:nonzero;"/>
        <path d="M1768,3363C1774,3361 1786,3361 1793,3363C1799,3366 1794,3368 1780,3368C1766,3368 1761,3366 1768,3363Z" style="fill-rule:nonzero;"/>
        <path d="M1828,3363C1834,3361 1846,3361 1853,3363C1859,3366 1854,3368 1840,3368C1826,3368 1821,3366 1828,3363Z" style="fill-rule:nonzero;"/>
        <path d="M1888,3363C1894,3361 1906,3361 1913,3363C1919,3366 1914,3368 1900,3368C1886,3368 1881,3366 1888,3363Z" style="fill-rule:nonzero;"/>
        <path d="M1948,3363C1954,3361 1966,3361 1973,3363C1979,3366 1974,3368 1960,3368C1946,3368 1941,3366 1948,3363Z" style="fill-rule:nonzero;"/>
        <path d="M2008,3363C2014,3361 2026,3361 2033,3363C2039,3366 2034,3368 2020,3368C2006,3368 2001,3366 2008,3363Z" style="fill-rule:nonzero;"/>
        <path d="M2068,3363C2074,3361 2086,3361 2093,3363C2099,3366 2094,3368 2080,3368C2066,3368 2061,3366 2068,3363Z" style="fill-rule:nonzero;"/>
        <path d="M2128,3363C2134,3361 2146,3361 2153,3363C2159,3366 2154,3368 2140,3368C2126,3368 2121,3366 2128,3363Z" style="fill-rule:nonzero;"/>
        <path d="M2188,3363C2194,3361 2206,3361 2213,3363C2219,3366 2214,3368 2200,3368C2186,3368 2181,3366 2188,3363Z" style="fill-rule:nonzero;"/>
        <path d="M2248,3363C2254,3361 2266,3361 2273,3363C2279,3366 2274,3368 2260,3368C2246,3368 2241,3366 2248,3363Z" style="fill-rule:nonzero;"/>
        <path d="M2308,3363C2314,3361 2326,3361 2333,3363C2339,3366 2334,3368 2320,3368C2306,3368 2301,3366 2308,3363Z" style="fill-rule:nonzero;"/>
        <path d="M2368,3363C2374,3361 2386,3361 2393,3363C2399,3366 2394,3368 2380,3368C2366,3368 2361,3366 2368,3363Z" style="fill-rule:nonzero;"/>
        <path d="M2428,3363C2434,3361 2446,3361 2453,3363C2459,3366 2454,3368 2440,3368C2426,3368 2421,3366 2428,3363Z" style="fill-rule:nonzero;"/>
        <path d="M2488,3363C2494,3361 2506,3361 2513,3363C2519,3366 2514,3368 2500,3368C2486,3368 2481,3366 2488,3363Z" style="fill-rule:nonzero;"/>
        <path d="M1590,3230C1590,3225 1599,3220 1610,3220C1621,3220 1630,3225 1630,3230C1630,3236 1621,3240 1610,3240C1599,3240 1590,3236 1590,3230Z" style="fill-rule:nonzero;"/>
        <path d="M1650,3230C1650,3225 1659,3220 1670,3220C1681,3220 1690,3225 1690,3230C1690,3236 1681,3240 1670,3240C1659,3240 1650,3236 1650,3230Z" style="fill-rule:nonzero;"/>
        <path d="M1710,3230C1710,3225 1719,3220 1730,3220C1741,3220 1750,3225 1750,3230C1750,3236 1741,3240 1730,3240C1719,3240 1710,3236 1710,3230Z" style="fill-rule:nonzero;"/>
        <path d="M1770,3230C1770,3225 1779,3220 1790,3220C1801,3220 1810,3225 1810,3230C1810,3236 1801,3240 1790,3240C1779,3240 1770,3236 1770,3230Z" style="fill-rule:nonzero;"/>
        <path d="M1830,3230C1830,3225 1839,3220 1850,3220C1861,3220 1870,3225 1870,3230C1870,3236 1861,3240 1850,3240C1839,3240 1830,3236 1830,3230Z" style="fill-rule:nonzero;"/>
        <path d="M1890,3230C1890,3225 1899,3220 1910,3220C1921,3220 1930,3225 1930,3230C1930,3236 1921,3240 1910,3240C1899,3240 1890,3236 1890,3230Z" style="fill-rule:nonzero;"/>
        <path d="M1950,3230C1950,3225 1959,3220 1970,3220C1981,3220 1990,3225 1990,3230C1990,3236 1981,3240 1970,3240C1959,3240 1950,3236 1950,3230Z" style="fill-rule:nonzero;"/>
        <path d="M2010,3230C2010,3225 2019,3220 2030,3220C2041,3220 2050,3225 2050,3230C2050,3236 2041,3240 2030,3240C2019,3240 2010,3236 2010,3230Z" style="fill-rule:nonzero;"/>
        <path d="M2070,3230C2070,3225 2079,3220 2090,3220C2101,3220 2110,3225 2110,3230C2110,3236 2101,3240 2090,3240C2079,3240 2070,3236 2070,3230Z" style="fill-rule:nonzero;"/>
        <path d="M1913,2863C1874,2817 1872,2816 1846,2829C1808,2850 1806,2838 1841,2804L1872,2775L1920,2830C1966,2882 1981,2910 1962,2910C1957,2910 1935,2889 1913,2863Z" style="fill-rule:nonzero;"/>
        <path d="M1230,2870C1230,2865 1223,2863 1215,2866C1197,2873 1195,2859 1212,2842C1221,2833 1221,2830 1211,2830C1204,2830 1200,2825 1202,2819C1204,2813 1209,2809 1214,2810C1219,2811 1227,2806 1231,2798C1238,2787 1242,2787 1248,2798C1253,2805 1261,2810 1266,2809C1286,2805 1292,2811 1281,2824C1273,2834 1272,2840 1280,2845C1295,2854 1282,2870 1265,2863C1257,2860 1250,2863 1250,2869C1250,2875 1246,2880 1240,2880C1235,2880 1230,2876 1230,2870Z" style="fill-rule:nonzero;"/>
        <path d="M1450,2869C1450,2863 1441,2861 1430,2865C1409,2872 1402,2856 1420,2845C1428,2840 1427,2834 1419,2824C1408,2811 1414,2805 1434,2809C1439,2810 1447,2805 1452,2798C1458,2787 1462,2787 1469,2798C1473,2806 1481,2811 1486,2810C1491,2809 1496,2813 1498,2819C1500,2825 1496,2830 1489,2830C1479,2830 1479,2833 1488,2842C1505,2859 1503,2873 1485,2866C1477,2863 1470,2865 1470,2870C1470,2876 1466,2880 1460,2880C1455,2880 1450,2875 1450,2869Z" style="fill-rule:nonzero;"/>
        <path d="M1660,2870C1660,2865 1654,2863 1646,2866C1636,2870 1632,2862 1632,2836C1632,2814 1636,2803 1642,2806C1648,2810 1656,2806 1661,2799C1669,2787 1671,2787 1679,2799C1684,2806 1692,2810 1698,2806C1704,2803 1711,2804 1714,2809C1718,2814 1716,2821 1711,2824C1706,2827 1704,2840 1708,2852C1712,2869 1710,2872 1697,2867C1687,2863 1680,2865 1680,2870C1680,2876 1676,2880 1670,2880C1665,2880 1660,2876 1660,2870Z" style="fill-rule:nonzero;"/>
        <g transform="matrix(0.777437,-1.16892e-17,-1.16892e-17,0.681987,1435.67,399.265)">
            <path d="M1230,2870C1230,2865 1223,2863 1215,2866C1197,2873 1195,2859 1212,2842C1221,2833 1221,2830 1211,2830C1204,2830 1200,2825 1202,2819C1204,2813 1209,2809 1214,2810C1219,2811 1227,2806 1231,2798C1238,2787 1242,2787 1248,2798C1253,2805 1261,2810 1266,2809C1286,2805 1292,2811 1281,2824C1273,2834 1272,2840 1280,2845C1295,2854 1282,2870 1265,2863C1257,2860 1250,2863 1250,2869C1250,2875 1246,2880 1240,2880C1235,2880 1230,2876 1230,2870Z" style="fill-rule:nonzero;"/>
        </g>
        <g transform="matrix(0.777437,-1.16892e-17,-1.16892e-17,0.681987,1435.67,399.265)">
            <path d="M1450,2869C1450,2863 1441,2861 1430,2865C1409,2872 1402,2856 1420,2845C1428,2840 1427,2834 1419,2824C1408,2811 1414,2805 1434,2809C1439,2810 1447,2805 1452,2798C1458,2787 1462,2787 1469,2798C1473,2806 1481,2811 1486,2810C1491,2809 1496,2813 1498,2819C1500,2825 1496,2830 1489,2830C1479,2830 1479,2833 1488,2842C1505,2859 1503,2873 1485,2866C1477,2863 1470,2865 1470,2870C1470,2876 1466,2880 1460,2880C1455,2880 1450,2875 1450,2869Z" style="fill-rule:nonzero;"/>
        </g>
        <g transform="matrix(0.777437,-1.16892e-17,-1.16892e-17,0.681987,1435.67,399.265)">
            <path d="M1660,2870C1660,2865 1654,2863 1646,2866C1636,2870 1632,2862 1632,2836C1632,2814 1636,2803 1642,2806C1648,2810 1656,2806 1661,2799C1669,2787 1671,2787 1679,2799C1684,2806 1692,2810 1698,2806C1704,2803 1711,2804 1714,2809C1718,2814 1716,2821 1711,2824C1706,2827 1704,2840 1708,2852C1712,2869 1710,2872 1697,2867C1687,2863 1680,2865 1680,2870C1680,2876 1676,2880 1670,2880C1665,2880 1660,2876 1660,2870Z" style="fill-rule:nonzero;"/>
        </g>
        <path d="M5510,3204C5510,3187 5532,3190 5538,3208C5540,3215 5535,3220 5526,3220C5517,3220 5510,3213 5510,3204Z" style="fill-rule:nonzero;"/>
        <path d="M6230,3210C6230,3205 6237,3200 6245,3200C6253,3200 6260,3205 6260,3210C6260,3216 6253,3220 6245,3220C6237,3220 6230,3216 6230,3210Z" style="fill-rule:nonzero;"/>
        <path d="M6952,3208C6958,3190 6980,3187 6980,3204C6980,3213 6973,3220 6964,3220C6955,3220 6950,3215 6952,3208Z" style="fill-rule:nonzero;"/>
        <path d="M5560,3200C5560,3195 5569,3190 5580,3190C5591,3190 5600,3195 5600,3200C5600,3206 5591,3210 5580,3210C5569,3210 5560,3206 5560,3200Z" style="fill-rule:nonzero;"/>
        <path d="M6170,3200C6170,3195 6177,3190 6185,3190C6193,3190 6200,3195 6200,3200C6200,3206 6193,3210 6185,3210C6177,3210 6170,3206 6170,3200Z" style="fill-rule:nonzero;"/>
        <path d="M6290,3200C6290,3195 6297,3190 6305,3190C6313,3190 6320,3195 6320,3200C6320,3206 6313,3210 6305,3210C6297,3210 6290,3206 6290,3200Z" style="fill-rule:nonzero;"/>
        <path d="M6890,3200C6890,3195 6899,3190 6910,3190C6921,3190 6930,3195 6930,3200C6930,3206 6921,3210 6910,3210C6899,3210 6890,3206 6890,3200Z" style="fill-rule:nonzero;"/>
        <path d="M5620,3190C5620,3185 5629,3180 5640,3180C5651,3180 5660,3185 5660,3190C5660,3196 5651,3200 5640,3200C5629,3200 5620,3196 5620,3190Z" style="fill-rule:nonzero;"/>
        <path d="M5680,3190C5680,3185 5689,3180 5701,3180C5712,3180 5718,3185 5715,3190C5712,3196 5702,3200 5694,3200C5686,3200 5680,3196 5680,3190Z" style="fill-rule:nonzero;"/>
        <path d="M6050,3190C6050,3185 6057,3180 6065,3180C6073,3180 6080,3185 6080,3190C6080,3196 6073,3200 6065,3200C6057,3200 6050,3196 6050,3190Z" style="fill-rule:nonzero;"/>
        <path d="M6110,3190C6110,3185 6117,3180 6125,3180C6133,3180 6140,3185 6140,3190C6140,3196 6133,3200 6125,3200C6117,3200 6110,3196 6110,3190Z" style="fill-rule:nonzero;"/>
        <path d="M6350,3190C6350,3185 6357,3180 6365,3180C6373,3180 6380,3185 6380,3190C6380,3196 6373,3200 6365,3200C6357,3200 6350,3196 6350,3190Z" style="fill-rule:nonzero;"/>
        <path d="M6410,3190C6410,3185 6417,3180 6425,3180C6433,3180 6440,3185 6440,3190C6440,3196 6433,3200 6425,3200C6417,3200 6410,3196 6410,3190Z" style="fill-rule:nonzero;"/>
        <path d="M6775,3190C6772,3185 6778,3180 6789,3180C6801,3180 6810,3185 6810,3190C6810,3196 6804,3200 6796,3200C6788,3200 6778,3196 6775,3190Z" style="fill-rule:nonzero;"/>
        <path d="M6830,3190C6830,3185 6839,3180 6850,3180C6861,3180 6870,3185 6870,3190C6870,3196 6861,3200 6850,3200C6839,3200 6830,3196 6830,3190Z" style="fill-rule:nonzero;"/>
        <path d="M5740,3180C5740,3175 5749,3170 5760,3170C5771,3170 5780,3175 5780,3180C5780,3186 5771,3190 5760,3190C5749,3190 5740,3186 5740,3180Z" style="fill-rule:nonzero;"/>
        <path d="M5800,3180C5800,3175 5809,3170 5820,3170C5831,3170 5840,3175 5840,3180C5840,3186 5831,3190 5820,3190C5809,3190 5800,3186 5800,3180Z" style="fill-rule:nonzero;"/>
        <path d="M5870,3180C5870,3175 5877,3170 5885,3170C5893,3170 5900,3175 5900,3180C5900,3186 5893,3190 5885,3190C5877,3190 5870,3186 5870,3180Z" style="fill-rule:nonzero;"/>
        <path d="M5930,3180C5930,3175 5937,3170 5945,3170C5953,3170 5960,3175 5960,3180C5960,3186 5953,3190 5945,3190C5937,3190 5930,3186 5930,3180Z" style="fill-rule:nonzero;"/>
        <path d="M5990,3180C5990,3175 5997,3170 6005,3170C6013,3170 6020,3175 6020,3180C6020,3186 6013,3190 6005,3190C5997,3190 5990,3186 5990,3180Z" style="fill-rule:nonzero;"/>
        <path d="M6470,3180C6470,3175 6477,3170 6485,3170C6493,3170 6500,3175 6500,3180C6500,3186 6493,3190 6485,3190C6477,3190 6470,3186 6470,3180Z" style="fill-rule:nonzero;"/>
        <path d="M6530,3180C6530,3175 6537,3170 6545,3170C6553,3170 6560,3175 6560,3180C6560,3186 6553,3190 6545,3190C6537,3190 6530,3186 6530,3180Z" style="fill-rule:nonzero;"/>
        <path d="M6590,3180C6590,3175 6597,3170 6605,3170C6613,3170 6620,3175 6620,3180C6620,3186 6613,3190 6605,3190C6597,3190 6590,3186 6590,3180Z" style="fill-rule:nonzero;"/>
        <path d="M6650,3180C6650,3175 6657,3170 6665,3170C6673,3170 6680,3175 6680,3180C6680,3186 6673,3190 6665,3190C6657,3190 6650,3186 6650,3180Z" style="fill-rule:nonzero;"/>
        <path d="M6710,3180C6710,3175 6719,3170 6730,3170C6741,3170 6750,3175 6750,3180C6750,3186 6741,3190 6730,3190C6719,3190 6710,3186 6710,3180Z" style="fill-rule:nonzero;"/>
        <path d="M5510,3150C5510,3139 5515,3130 5520,3130C5526,3130 5530,3139 5530,3150C5530,3161 5526,3170 5520,3170C5515,3170 5510,3161 5510,3150Z" style="fill-rule:nonzero;"/>
        <path d="M6962,3150C6962,3136 6964,3131 6967,3138C6969,3144 6969,3156 6967,3163C6964,3169 6962,3164 6962,3150Z" style="fill-rule:nonzero;"/>
        <path d="M5510,3090C5510,3079 5515,3070 5520,3070C5526,3070 5530,3079 5530,3090C5530,3101 5526,3110 5520,3110C5515,3110 5510,3101 5510,3090Z" style="fill-rule:nonzero;"/>
        <path d="M6962,3090C6962,3076 6964,3071 6967,3078C6969,3084 6969,3096 6967,3103C6964,3109 6962,3104 6962,3090Z" style="fill-rule:nonzero;"/>
        <path d="M5620,3080C5609,3069 5600,3051 5600,3040C5600,3014 5634,2980 5660,2980C5686,2980 5720,3014 5720,3040C5720,3066 5686,3100 5660,3100C5649,3100 5631,3091 5620,3080ZM5685,3040C5685,3022 5679,3014 5662,3012C5649,3010 5637,3015 5634,3024C5624,3050 5638,3072 5662,3068C5679,3066 5685,3058 5685,3040Z" style="fill-rule:nonzero;"/>
        <path d="M6790,3080C6779,3069 6770,3051 6770,3040C6770,3014 6804,2980 6830,2980C6856,2980 6890,3014 6890,3040C6890,3066 6856,3100 6830,3100C6819,3100 6801,3091 6790,3080ZM6855,3040C6855,3022 6849,3014 6832,3012C6808,3008 6794,3030 6804,3056C6807,3065 6819,3070 6832,3068C6849,3066 6855,3058 6855,3040Z" style="fill-rule:nonzero;"/>
        <path d="M5510,3030C5510,3019 5515,3010 5520,3010C5526,3010 5530,3019 5530,3030C5530,3041 5526,3050 5520,3050C5515,3050 5510,3041 5510,3030Z" style="fill-rule:nonzero;"/>
        <path d="M6962,3030C6962,3016 6964,3011 6967,3018C6969,3024 6969,3036 6967,3043C6964,3049 6962,3044 6962,3030Z" style="fill-rule:nonzero;"/>
        <path d="M5510,2970C5510,2959 5515,2950 5520,2950C5526,2950 5530,2959 5530,2970C5530,2981 5526,2990 5520,2990C5515,2990 5510,2981 5510,2970Z" style="fill-rule:nonzero;"/>
        <path d="M6962,2970C6962,2956 6964,2951 6967,2958C6969,2964 6969,2976 6967,2983C6964,2989 6962,2984 6962,2970Z" style="fill-rule:nonzero;"/>
        <path d="M5510,2910C5510,2899 5515,2890 5520,2890C5526,2890 5530,2899 5530,2910C5530,2921 5526,2930 5520,2930C5515,2930 5510,2921 5510,2910Z" style="fill-rule:nonzero;"/>
        <path d="M6961,2914C6961,2903 6964,2900 6967,2908C6970,2915 6969,2924 6966,2927C6963,2931 6960,2925 6961,2914Z" style="fill-rule:nonzero;"/>
        <path d="M6961,2854C6961,2843 6964,2840 6967,2848C6970,2855 6969,2864 6966,2867C6963,2871 6960,2865 6961,2854Z" style="fill-rule:nonzero;"/>
        <path d="M5510,2845C5510,2837 5515,2830 5520,2830C5526,2830 5530,2837 5530,2845C5530,2853 5526,2860 5520,2860C5515,2860 5510,2853 5510,2845Z" style="fill-rule:nonzero;"/>
        <path d="M6961,2794C6961,2783 6964,2780 6967,2788C6970,2795 6969,2804 6966,2807C6963,2811 6960,2805 6961,2794Z" style="fill-rule:nonzero;"/>
        <path d="M5510,2785C5510,2777 5515,2770 5520,2770C5526,2770 5530,2777 5530,2785C5530,2793 5526,2800 5520,2800C5515,2800 5510,2793 5510,2785Z" style="fill-rule:nonzero;"/>
        <path d="M6961,2734C6961,2723 6964,2720 6967,2728C6970,2735 6969,2744 6966,2747C6963,2751 6960,2745 6961,2734Z" style="fill-rule:nonzero;"/>
        <path d="M5520,2725C5520,2717 5525,2710 5530,2710C5536,2710 5540,2717 5540,2725C5540,2733 5536,2740 5530,2740C5525,2740 5520,2733 5520,2725Z" style="fill-rule:nonzero;"/>
        <path d="M6962,2680C6962,2666 6964,2661 6967,2668C6969,2674 6969,2686 6967,2693C6964,2699 6962,2694 6962,2680Z" style="fill-rule:nonzero;"/>
        <path d="M5520,2665C5520,2657 5525,2650 5530,2650C5536,2650 5540,2657 5540,2665C5540,2673 5536,2680 5530,2680C5525,2680 5520,2673 5520,2665Z" style="fill-rule:nonzero;"/>
        <path d="M6950,2620C6950,2609 6955,2600 6960,2600C6966,2600 6970,2609 6970,2620C6970,2631 6966,2640 6960,2640C6955,2640 6950,2631 6950,2620Z" style="fill-rule:nonzero;"/>
        <path d="M5530,2605C5530,2597 5535,2590 5540,2590C5546,2590 5550,2597 5550,2605C5550,2613 5546,2620 5540,2620C5535,2620 5530,2613 5530,2605Z" style="fill-rule:nonzero;"/>
        <path d="M6945,2567C6941,2557 6940,2546 6944,2543C6954,2533 6962,2547 6957,2567C6953,2584 6953,2584 6945,2567Z" style="fill-rule:nonzero;"/>
        <path d="M5540,2545C5540,2537 5545,2530 5550,2530C5556,2530 5560,2537 5560,2545C5560,2553 5556,2560 5550,2560C5545,2560 5540,2553 5540,2545Z" style="fill-rule:nonzero;"/>
        <path d="M6935,2507C6931,2497 6930,2486 6934,2483C6944,2473 6952,2487 6947,2507C6943,2524 6943,2524 6935,2507Z" style="fill-rule:nonzero;"/>
        <path d="M5560,2485C5560,2477 5565,2470 5570,2470C5576,2470 5580,2477 5580,2485C5580,2493 5576,2500 5570,2500C5565,2500 5560,2493 5560,2485Z" style="fill-rule:nonzero;"/>
        <path d="M6920,2440C6920,2429 6925,2420 6930,2420C6936,2420 6940,2429 6940,2440C6940,2451 6936,2460 6930,2460C6925,2460 6920,2451 6920,2440Z" style="fill-rule:nonzero;"/>
        <path d="M5570,2431C5570,2419 5576,2410 5586,2410C5595,2410 5600,2417 5598,2427C5593,2452 5570,2455 5570,2431Z" style="fill-rule:nonzero;"/>
        <path d="M6900,2385C6900,2377 6905,2370 6910,2370C6916,2370 6920,2377 6920,2385C6920,2393 6916,2400 6910,2400C6905,2400 6900,2393 6900,2385Z" style="fill-rule:nonzero;"/>
        <path d="M5592,2374C5593,2365 5601,2355 5608,2352C5617,2349 5621,2354 5618,2366C5617,2375 5609,2385 5602,2388C5593,2391 5589,2386 5592,2374Z" style="fill-rule:nonzero;"/>
        <path d="M6883,2335C6880,2326 6880,2317 6883,2314C6892,2305 6910,2320 6910,2336C6910,2355 6891,2354 6883,2335Z" style="fill-rule:nonzero;"/>
        <path d="M5610,2315C5610,2307 5617,2300 5625,2300C5633,2300 5640,2307 5640,2315C5640,2323 5633,2330 5625,2330C5617,2330 5610,2323 5610,2315Z" style="fill-rule:nonzero;"/>
        <path d="M6860,2275C6860,2267 6865,2260 6870,2260C6876,2260 6880,2267 6880,2275C6880,2283 6876,2290 6870,2290C6865,2290 6860,2283 6860,2275Z" style="fill-rule:nonzero;"/>
        <path d="M5640,2255C5640,2247 5645,2240 5650,2240C5656,2240 5660,2247 5660,2255C5660,2263 5656,2270 5650,2270C5645,2270 5640,2263 5640,2255Z" style="fill-rule:nonzero;"/>
        <path d="M6840,2219C6840,2208 6845,2202 6850,2205C6856,2208 6860,2218 6860,2226C6860,2234 6856,2240 6850,2240C6845,2240 6840,2231 6840,2219Z" style="fill-rule:nonzero;"/>
        <path d="M5660,2205C5660,2197 5667,2190 5675,2190C5683,2190 5690,2197 5690,2205C5690,2213 5683,2220 5675,2220C5667,2220 5660,2213 5660,2205Z" style="fill-rule:nonzero;"/>
        <path d="M6810,2165C6810,2157 6815,2150 6820,2150C6826,2150 6830,2157 6830,2165C6830,2173 6826,2180 6820,2180C6815,2180 6810,2173 6810,2165Z" style="fill-rule:nonzero;"/>
        <path d="M5692,2154C5693,2145 5701,2135 5708,2132C5717,2129 5721,2134 5718,2146C5717,2155 5709,2165 5702,2168C5693,2171 5689,2166 5692,2154Z" style="fill-rule:nonzero;"/>
        <path d="M6780,2115C6780,2107 6787,2100 6795,2100C6803,2100 6810,2107 6810,2115C6810,2123 6803,2130 6795,2130C6787,2130 6780,2123 6780,2115Z" style="fill-rule:nonzero;"/>
        <path d="M5720,2095C5720,2087 5727,2080 5735,2080C5743,2080 5750,2087 5750,2095C5750,2103 5743,2110 5735,2110C5727,2110 5720,2103 5720,2095Z" style="fill-rule:nonzero;"/>
        <path d="M6750,2065C6750,2057 6755,2050 6760,2050C6766,2050 6770,2057 6770,2065C6770,2073 6766,2080 6760,2080C6755,2080 6750,2073 6750,2065Z" style="fill-rule:nonzero;"/>
        <path d="M5760,2045C5760,2037 5765,2030 5770,2030C5776,2030 5780,2037 5780,2045C5780,2053 5776,2060 5770,2060C5765,2060 5760,2053 5760,2045Z" style="fill-rule:nonzero;"/>
        <path d="M6720,2015C6720,2007 6725,2000 6730,2000C6736,2000 6740,2007 6740,2015C6740,2023 6736,2030 6730,2030C6725,2030 6720,2023 6720,2015Z" style="fill-rule:nonzero;"/>
        <path d="M5790,1996C5790,1987 5797,1980 5806,1980C5815,1980 5820,1985 5818,1992C5812,2010 5790,2013 5790,1996Z" style="fill-rule:nonzero;"/>
        <path d="M6680,1964C6680,1955 6685,1950 6692,1952C6710,1958 6713,1980 6696,1980C6687,1980 6680,1973 6680,1964Z" style="fill-rule:nonzero;"/>
        <path d="M5830,1945C5830,1937 5835,1930 5840,1930C5846,1930 5850,1937 5850,1945C5850,1953 5846,1960 5840,1960C5835,1960 5830,1953 5830,1945Z" style="fill-rule:nonzero;"/>
        <path d="M6640,1920C6640,1915 6647,1910 6655,1910C6663,1910 6670,1915 6670,1920C6670,1926 6663,1930 6655,1930C6647,1930 6640,1926 6640,1920Z" style="fill-rule:nonzero;"/>
        <path d="M5862,1898C5868,1880 5890,1877 5890,1894C5890,1903 5883,1910 5874,1910C5865,1910 5860,1905 5862,1898Z" style="fill-rule:nonzero;"/>
        <path d="M6607,1883C6595,1872 6599,1860 6615,1860C6623,1860 6630,1867 6630,1875C6630,1891 6618,1895 6607,1883Z" style="fill-rule:nonzero;"/>
        <path d="M5900,1856C5900,1847 5907,1840 5916,1840C5933,1840 5930,1862 5912,1868C5905,1870 5900,1865 5900,1856Z" style="fill-rule:nonzero;"/>
        <path d="M6567,1843C6555,1832 6559,1820 6575,1820C6583,1820 6590,1827 6590,1835C6590,1851 6578,1855 6567,1843Z" style="fill-rule:nonzero;"/>
        <path d="M5942,1808C5948,1790 5970,1787 5970,1804C5970,1813 5963,1820 5954,1820C5945,1820 5940,1815 5942,1808Z" style="fill-rule:nonzero;"/>
        <path d="M6520,1795C6520,1787 6527,1780 6535,1780C6543,1780 6550,1787 6550,1795C6550,1803 6543,1810 6535,1810C6527,1810 6520,1803 6520,1795Z" style="fill-rule:nonzero;"/>
        <path d="M6202,1788C6185,1771 6187,1724 6206,1706C6241,1670 6300,1697 6300,1749C6300,1784 6283,1800 6245,1800C6228,1800 6209,1795 6202,1788ZM6270,1744C6270,1725 6265,1720 6246,1720C6217,1720 6206,1744 6226,1764C6246,1784 6270,1773 6270,1744Z" style="fill-rule:nonzero;"/>
        <path d="M5990,1765C5990,1757 5997,1750 6005,1750C6014,1750 6017,1756 6014,1765C6010,1773 6004,1780 5999,1780C5994,1780 5990,1773 5990,1765Z" style="fill-rule:nonzero;"/>
        <path d="M6477,1763C6465,1752 6469,1740 6485,1740C6493,1740 6500,1747 6500,1755C6500,1771 6488,1775 6477,1763Z" style="fill-rule:nonzero;"/>
        <path d="M6030,1726C6030,1717 6037,1710 6046,1710C6055,1710 6060,1715 6058,1722C6052,1740 6030,1743 6030,1726Z" style="fill-rule:nonzero;"/>
        <path d="M6430,1715C6430,1707 6437,1700 6445,1700C6453,1700 6460,1707 6460,1715C6460,1723 6453,1730 6445,1730C6437,1730 6430,1723 6430,1715Z" style="fill-rule:nonzero;"/>
        <path d="M6080,1685C6080,1677 6087,1670 6095,1670C6103,1670 6110,1677 6110,1685C6110,1693 6103,1700 6095,1700C6087,1700 6080,1693 6080,1685Z" style="fill-rule:nonzero;"/>
        <path d="M6380,1680C6380,1675 6387,1670 6395,1670C6403,1670 6410,1675 6410,1680C6410,1686 6403,1690 6395,1690C6387,1690 6380,1686 6380,1680Z" style="fill-rule:nonzero;"/>
        <path d="M6130,1650C6130,1645 6137,1640 6145,1640C6153,1640 6160,1645 6160,1650C6160,1656 6153,1660 6145,1660C6137,1660 6130,1656 6130,1650Z" style="fill-rule:nonzero;"/>
        <path d="M6330,1645C6330,1637 6337,1630 6345,1630C6353,1630 6360,1637 6360,1645C6360,1653 6353,1660 6345,1660C6337,1660 6330,1653 6330,1645Z" style="fill-rule:nonzero;"/>
        <path d="M6180,1615C6180,1607 6187,1600 6195,1600C6203,1600 6210,1607 6210,1615C6210,1623 6203,1630 6195,1630C6187,1630 6180,1623 6180,1615Z" style="fill-rule:nonzero;"/>
        <path d="M6287,1623C6275,1612 6279,1600 6295,1600C6303,1600 6310,1607 6310,1615C6310,1631 6298,1635 6287,1623Z" style="fill-rule:nonzero;"/>
        <path d="M6225,1590C6217,1578 6245,1566 6260,1575C6266,1578 6268,1586 6265,1591C6257,1603 6233,1603 6225,1590Z" style="fill-rule:nonzero;"/>
        <path d="M2361,2996C2352,2986 2352,2980 2360,2975C2377,2965 2397,2987 2384,3000C2376,3008 2369,3006 2361,2996Z" style="fill-rule:nonzero;"/>
        <path d="M2435,2990C2425,2973 2452,2969 2545,2972C2605,2974 2635,2979 2638,2988C2643,3003 2445,3006 2435,2990Z" style="fill-rule:nonzero;"/>
        <path d="M2460,1780C2421,1741 2449,1670 2504,1670C2529,1670 2570,1711 2570,1737C2570,1758 2524,1800 2500,1800C2489,1800 2471,1791 2460,1780ZM2531,1754C2548,1733 2531,1705 2499,1705C2475,1705 2463,1728 2474,1756C2481,1775 2514,1774 2531,1754Z" style="fill-rule:nonzero;"/>
        <path d="M3465,3870C3356,3845 3310,3779 3310,3647L3310,3563L3274,3557C3208,3546 3210,3553 3210,3280L3210,3031L3236,3011C3261,2991 3275,2990 3497,2990C3727,2990 3762,2994 3782,3024C3786,3030 3790,3146 3790,3281C3790,3549 3791,3544 3732,3556C3700,3562 3700,3563 3700,3622C3700,3703 3684,3761 3649,3802C3605,3857 3528,3885 3465,3870ZM3580,3825C3648,3790 3669,3733 3670,3583L3670,3470L3645,3470L3620,3470L3620,3590C3620,3725 3610,3759 3560,3785C3501,3816 3430,3796 3396,3740C3384,3718 3380,3685 3380,3591C3380,3477 3379,3470 3360,3470C3341,3470 3340,3477 3340,3600C3340,3693 3344,3739 3354,3758C3395,3838 3497,3868 3580,3825ZM3565,3745C3587,3723 3590,3713 3590,3640L3590,3560L3500,3560L3410,3560L3410,3639C3410,3708 3413,3720 3435,3744C3468,3780 3530,3781 3565,3745ZM3770,3218C3770,3080 3767,3049 3754,3036C3741,3022 3704,3020 3500,3020C3265,3020 3261,3020 3246,3042C3233,3060 3230,3096 3230,3225L3230,3385L3770,3385L3770,3218Z" style="fill-rule:nonzero;"/>
        <path d="M4192,3620C4192,3606 4194,3601 4197,3608C4199,3614 4199,3626 4197,3633C4194,3639 4192,3634 4192,3620Z" style="fill-rule:nonzero;"/>
        <path d="M4192,3560C4192,3546 4194,3541 4197,3548C4199,3554 4199,3566 4197,3573C4194,3579 4192,3574 4192,3560Z" style="fill-rule:nonzero;"/>
        <path d="M4790,3564C4704,3527 4669,3468 4662,3348L4657,3260L4629,3260C4572,3260 4570,3252 4570,2989C4570,2763 4571,2749 4590,2730C4609,2711 4623,2710 4854,2710C5079,2710 5100,2711 5121,2729C5145,2748 5145,2750 5148,2977C5151,3239 5148,3253 5087,3258L5050,3261L5050,3332C5050,3425 5033,3477 4990,3520C4934,3576 4857,3593 4790,3564ZM4930,3527C5002,3489 5020,3443 5020,3298C5020,3187 5019,3180 5000,3180C4981,3180 4980,3187 4980,3290C4980,3362 4975,3412 4966,3434C4939,3498 4868,3524 4806,3495C4750,3468 4740,3439 4740,3300L4740,3180L4715,3180L4690,3180L4690,3283C4690,3403 4702,3454 4738,3494C4793,3553 4860,3564 4930,3527ZM4899,3466C4937,3446 4950,3411 4950,3330L4950,3260L4860,3260L4770,3260L4770,3344C4770,3426 4771,3429 4801,3454C4836,3483 4859,3486 4899,3466ZM5068,2932C5066,2816 5061,2769 5051,2757C5040,2742 5013,2740 4869,2740C4713,2740 4700,2741 4690,2759C4684,2770 4680,2846 4680,2934L4680,3090L5071,3090L5068,2932Z" style="fill-rule:nonzero;"/>
        <path d="M4192,3500C4192,3486 4194,3481 4197,3488C4199,3494 4199,3506 4197,3513C4194,3519 4192,3514 4192,3500Z" style="fill-rule:nonzero;"/>
        <path d="M4192,3440C4192,3426 4194,3421 4197,3428C4199,3434 4199,3446 4197,3453C4194,3459 4192,3454 4192,3440Z" style="fill-rule:nonzero;"/>
        <path d="M4192,3380C4192,3366 4194,3361 4197,3368C4199,3374 4199,3386 4197,3393C4194,3399 4192,3394 4192,3380Z" style="fill-rule:nonzero;"/>
        <path d="M4192,3320C4192,3306 4194,3301 4197,3308C4199,3314 4199,3326 4197,3333C4194,3339 4192,3334 4192,3320Z" style="fill-rule:nonzero;"/>
        <path d="M4192,3260C4192,3246 4194,3241 4197,3248C4199,3254 4199,3266 4197,3273C4194,3279 4192,3274 4192,3260Z" style="fill-rule:nonzero;"/>
        <path d="M4192,3200C4192,3186 4194,3181 4197,3188C4199,3194 4199,3206 4197,3213C4194,3219 4192,3214 4192,3200Z" style="fill-rule:nonzero;"/>
        <path d="M4192,3140C4192,3126 4194,3121 4197,3128C4199,3134 4199,3146 4197,3153C4194,3159 4192,3154 4192,3140Z" style="fill-rule:nonzero;"/>
        <path d="M4192,3080C4192,3066 4194,3061 4197,3068C4199,3074 4199,3086 4197,3093C4194,3099 4192,3094 4192,3080Z" style="fill-rule:nonzero;"/>
        <path d="M4192,3020C4192,3006 4194,3001 4197,3008C4199,3014 4199,3026 4197,3033C4194,3039 4192,3034 4192,3020Z" style="fill-rule:nonzero;"/>
        <path d="M4192,2960C4192,2946 4194,2941 4197,2948C4199,2954 4199,2966 4197,2973C4194,2979 4192,2974 4192,2960Z" style="fill-rule:nonzero;"/>
        <path d="M3490,2945C3490,2937 3495,2930 3500,2930C3506,2930 3510,2937 3510,2945C3510,2953 3506,2960 3500,2960C3495,2960 3490,2953 3490,2945Z" style="fill-rule:nonzero;"/>
        <path d="M4192,2900C4192,2886 4194,2881 4197,2888C4199,2894 4199,2906 4197,2913C4194,2919 4192,2914 4192,2900Z" style="fill-rule:nonzero;"/>
        <path d="M3490,2885C3490,2877 3495,2870 3500,2870C3506,2870 3510,2877 3510,2885C3510,2893 3506,2900 3500,2900C3495,2900 3490,2893 3490,2885Z" style="fill-rule:nonzero;"/>
        <path d="M4192,2840C4192,2826 4194,2821 4197,2828C4199,2834 4199,2846 4197,2853C4194,2859 4192,2854 4192,2840Z" style="fill-rule:nonzero;"/>
        <path d="M3490,2825C3490,2817 3495,2810 3500,2810C3506,2810 3510,2817 3510,2825C3510,2833 3506,2840 3500,2840C3495,2840 3490,2833 3490,2825Z" style="fill-rule:nonzero;"/>
        <path d="M4192,2780C4192,2766 4194,2761 4197,2768C4199,2774 4199,2786 4197,2793C4194,2799 4192,2794 4192,2780Z" style="fill-rule:nonzero;"/>
        <path d="M3490,2765C3490,2757 3495,2750 3500,2750C3506,2750 3510,2757 3510,2765C3510,2773 3506,2780 3500,2780C3495,2780 3490,2773 3490,2765Z" style="fill-rule:nonzero;"/>
        <path d="M4192,2720C4192,2706 4194,2701 4197,2708C4199,2714 4199,2726 4197,2733C4194,2739 4192,2734 4192,2720Z" style="fill-rule:nonzero;"/>
        <path d="M3490,2705C3490,2697 3495,2690 3500,2690C3506,2690 3510,2697 3510,2705C3510,2713 3506,2720 3500,2720C3495,2720 3490,2713 3490,2705Z" style="fill-rule:nonzero;"/>
        <path d="M4870,2680C4870,2669 4875,2660 4880,2660C4886,2660 4890,2669 4890,2680C4890,2691 4886,2700 4880,2700C4875,2700 4870,2691 4870,2680Z" style="fill-rule:nonzero;"/>
        <path d="M4192,2660C4192,2646 4194,2641 4197,2648C4199,2654 4199,2666 4197,2673C4194,2679 4192,2674 4192,2660Z" style="fill-rule:nonzero;"/>
        <path d="M3490,2645C3490,2637 3495,2630 3500,2630C3506,2630 3510,2637 3510,2645C3510,2653 3506,2660 3500,2660C3495,2660 3490,2653 3490,2645Z" style="fill-rule:nonzero;"/>
        <path d="M4870,2620C4870,2609 4875,2600 4880,2600C4886,2600 4890,2609 4890,2620C4890,2631 4886,2640 4880,2640C4875,2640 4870,2631 4870,2620Z" style="fill-rule:nonzero;"/>
        <path d="M4192,2600C4192,2586 4194,2581 4197,2588C4199,2594 4199,2606 4197,2613C4194,2619 4192,2614 4192,2600Z" style="fill-rule:nonzero;"/>
        <path d="M3490,2587C3490,2581 3470,2564 3445,2551C3399,2527 3360,2468 3360,2422C3360,2362 3412,2296 3472,2279C3581,2250 3685,2359 3650,2465C3636,2506 3582,2556 3541,2565C3524,2569 3510,2578 3510,2586C3510,2594 3506,2600 3500,2600C3495,2600 3490,2594 3490,2587ZM3570,2525C3652,2483 3648,2355 3564,2315C3470,2271 3381,2335 3393,2439C3403,2524 3490,2567 3570,2525Z" style="fill-rule:nonzero;"/>
        <path d="M3575,2470C3571,2464 3560,2462 3549,2465C3536,2469 3530,2467 3530,2456C3530,2434 3569,2425 3588,2444C3600,2455 3601,2463 3593,2471C3585,2479 3580,2479 3575,2470Z" style="fill-rule:nonzero;"/>
        <path d="M3423,2447C3433,2417 3490,2413 3490,2443C3490,2451 3477,2456 3454,2457C3433,2458 3420,2454 3423,2447Z" style="fill-rule:nonzero;"/>
        <path d="M3470,2353C3470,2335 3514,2326 3540,2340C3568,2355 3560,2362 3510,2364C3483,2366 3470,2362 3470,2353Z" style="fill-rule:nonzero;"/>
        <path d="M4823,2554C4748,2517 4714,2443 4741,2373C4781,2268 4915,2241 4988,2324C5060,2406 5029,2514 4922,2561C4898,2572 4877,2580 4876,2580C4875,2580 4851,2568 4823,2554ZM4940,2525C5019,2484 5019,2363 4940,2316C4852,2264 4751,2334 4763,2439C4773,2524 4860,2567 4940,2525Z" style="fill-rule:nonzero;"/>
        <path d="M4793,2447C4803,2417 4860,2413 4860,2443C4860,2451 4847,2456 4824,2457C4803,2458 4790,2454 4793,2447Z" style="fill-rule:nonzero;"/>
        <path d="M4900,2443C4900,2424 4929,2415 4948,2427C4977,2445 4972,2458 4936,2457C4913,2456 4900,2451 4900,2443Z" style="fill-rule:nonzero;"/>
        <path d="M4840,2353C4840,2335 4884,2326 4910,2340C4938,2355 4930,2362 4880,2364C4853,2366 4840,2362 4840,2353Z" style="fill-rule:nonzero;"/>
        <path d="M4130,2551C4074,2521 4055,2487 4055,2419C4055,2361 4057,2357 4096,2321C4148,2271 4195,2262 4255,2289C4311,2314 4340,2359 4340,2421C4340,2531 4226,2603 4130,2551ZM4259,2525C4290,2510 4320,2456 4320,2417C4320,2386 4282,2329 4250,2313C4160,2267 4051,2356 4079,2451C4102,2528 4187,2563 4259,2525Z" style="fill-rule:nonzero;"/>
        <path d="M4112,2443C4116,2419 4165,2413 4174,2436C4183,2458 4174,2466 4156,2451C4146,2443 4140,2442 4135,2450C4125,2466 4108,2462 4112,2443Z" style="fill-rule:nonzero;"/>
        <path d="M4222,2441C4224,2431 4235,2425 4250,2425C4265,2425 4276,2431 4278,2441C4280,2453 4273,2457 4250,2457C4227,2457 4220,2453 4222,2441Z" style="fill-rule:nonzero;"/>
        <path d="M4154,2358C4146,2345 4191,2328 4216,2334C4256,2345 4245,2366 4199,2365C4177,2365 4156,2362 4154,2358Z" style="fill-rule:nonzero;"/>
        <g id="Accept" transform="matrix(19.1,-1.70867e-30,2.35426e-31,-23.104,564.05,4535.47)">
            <path d="M298.5,66.1C286.3,66.1 276.5,75.9 276.5,88.1C276.5,100.3 286.3,110.1 298.5,110.1C310.7,110.1 320.5,100.3 320.5,88.1C320.5,75.9 310.7,66.1 298.5,66.1ZM295.5,97.5L287.8,89.8L289.2,88.4L295.5,94.7L310.8,79.4L312.2,80.8L295.5,97.5Z" style="fill:rgb(82,147,199);fill-rule:nonzero;stroke:rgb(47,57,65);stroke-width:0.47px;"/>
        </g>
        <g transform="matrix(9.72973,0,0,-9.57447,70.6681,5816.43)">
            <ellipse cx="249.821" cy="426.46" rx="3.884" ry="4.933" style="fill:rgb(233,235,237);"/>
        </g>
        <g transform="matrix(13.7931,0,0,-11.3953,-465.931,6482.43)">
            <path d="M159.156,337.511C159.156,335.565 157.85,333.985 156.243,333.985L124.02,333.985C122.412,333.985 121.107,335.565 121.107,337.511L121.107,344.564C121.107,346.51 122.412,348.09 124.02,348.09L156.243,348.09C157.85,348.09 159.156,346.51 159.156,344.564L159.156,337.511Z" style="fill:rgb(194,200,204);"/>
        </g>
        <g transform="matrix(10,0,0,-10,0,6000)">
            <ellipse cx="104.773" cy="217.726" rx="3.805" ry="4.067" style="fill:rgb(255,182,72);"/>
        </g>
        <g transform="matrix(10,0,0,-10,181.06,6000)">
            <ellipse cx="104.773" cy="217.726" rx="3.805" ry="4.067" style="fill:rgb(233,235,237);"/>
        </g>
        <g transform="matrix(10,0,0,-10,362.12,6002.62)">
            <ellipse cx="104.773" cy="217.726" rx="3.805" ry="4.067" style="fill:rgb(82,147,199);"/>
        </g>
        <g transform="matrix(10,0,0,-10,0,6000)">
            <rect x="460.922" y="288.19" width="49.97" height="37.798" style="fill:rgb(233,235,237);"/>
        </g>
    </g>
</svg>
